<?xml version="1.0" encoding="utf-8"?>
<!-- Generator: Adobe Illustrator 26.0.2, SVG Export Plug-In . SVG Version: 6.00 Build 0)  -->
<svg version="1.1" id="Layer_1" xmlns="http://www.w3.org/2000/svg" xmlns:xlink="http://www.w3.org/1999/xlink" x="0px" y="0px"
	 viewBox="0 0 106.5 122.9" style="enable-background:new 0 0 106.5 122.9;" xml:space="preserve">
<style type="text/css">
	.st0{fill:#4A92CE;}
</style>
<path class="st0" d="M53.3,31.1c5.4,0,10.8,0.4,16.2,1.2l-2.7,4.3c-4.5-0.6-8.9-0.8-13.4-0.8c-3.8,0-7.6,0.2-11.4,0.6L39.2,32
	C43.9,31.4,48.6,31.1,53.3,31.1L53.3,31.1z M64.7,48.3c-3.7,0-6.8,3.1-6.7,6.9c0,3.8,3,6.9,6.8,6.9c3.7,0,6.8-3.1,6.7-6.9
	c0-1.2-0.3-2.4-0.9-3.4L95.3,18c2.9-5.1-3.7-8.6-6.8-4.4L66.4,48.5C65.8,48.4,65.3,48.3,64.7,48.3z M40.9,43.3c3.7,0,6.8,3,6.8,6.8
	c0,3.8-3,6.9-6.7,6.9c-3.7,0-6.8-3-6.8-6.8c0-1.2,0.3-2.4,0.9-3.4L10.3,12.9C7.4,7.8,14,4.3,17.1,8.6l22.2,34.9
	C39.8,43.3,40.3,43.2,40.9,43.3L40.9,43.3z M24.4,79.6h0.2V69.3c-1.6-0.5-3-1-4.4-1.6c-3.8-1.4-7.2-3.5-10.3-6.2v37.3
	c1.8,5,7.3,8.9,14.7,11.7v-9.6h-0.2c-1.3,0-2.3-1-2.3-2.3V81.9C22.1,80.7,23.1,79.6,24.4,79.6z M29.3,79.6h0.2c1.3,0,2.3,1,2.3,2.3
	v16.5c0,1.3-1,2.3-2.3,2.3h-0.2v10.6c0,0.2,0,0.4-0.1,0.6l0.6,0.1c6.9,1.8,13.9,2.8,21,3v-10.8h-0.1c-1.3,0-2.3-1-2.3-2.3V85.4
	c0-1.3,1-2.3,2.3-2.3h0.1v-9.8c-7.2-0.1-14.5-1-21.5-2.7C29.3,70.6,29.3,79.6,29.3,79.6z M77.1,79.6h0.2v-9
	c-7.1,1.7-14.3,2.6-21.5,2.7v9.8h0.1c1.3,0,2.3,1,2.3,2.3v16.5c0,1.3-1,2.3-2.3,2.3h-0.1v10.8H56c7.2-0.1,14.5-1,21.5-2.8
	c-0.1-0.3-0.2-0.6-0.2-0.9v-10.6h-0.2c-1.3,0-2.3-1-2.3-2.3V81.9C74.8,80.7,75.9,79.6,77.1,79.6z M82.1,79.6h0.2
	c1.3,0,2.3,1,2.3,2.3v16.5c0,1.3-1,2.3-2.3,2.3h-0.2v10.1c7.6-2.8,13.2-6.7,14.7-12V61.5c-3,2.7-6.5,4.8-10.3,6.2
	c-1.4,0.6-2.9,1.1-4.4,1.6L82.1,79.6L82.1,79.6z M101.4,52.7v46.5l0,0c0,0.2,0,0.4-0.1,0.6c-1.9,7.3-9,12.6-18.7,15.8
	c-7.7,2.6-17.1,4-26.6,4.2c-9.2,0.2-18.4-0.8-27.4-3.1c-11.5-3.1-20.5-8.6-23.2-16.5c-0.1-0.3-0.2-0.6-0.2-0.9V52.7
	c0-0.1,0-0.3,0-0.4c0-6.2,5.7-11.7,14.8-15.5h0.1l2.8,3.9l-1.2,0.5c-7.4,3-12,6.9-12,11.1s4.6,8.1,12,11.1c8,3.3,19.1,5.3,31.5,5.3
	c2.9,0,5.7-0.1,8.4-0.3c3.1-0.2,6.1-0.6,9.2-1.1c4.8-0.8,9.4-2.1,14-3.9c7.4-3,12-7,12-11.1c0-4-4.2-7.8-11.1-10.8l2.8-3.8
	c8,3.7,12.9,8.8,12.9,14.6C101.4,52.4,101.4,52.5,101.4,52.7L101.4,52.7z"/>
</svg>
