<?xml version="1.0" encoding="utf-8"?>
<!-- Generator: Adobe Illustrator 26.0.2, SVG Export Plug-In . SVG Version: 6.00 Build 0)  -->
<svg version="1.1" id="Layer_1" xmlns="http://www.w3.org/2000/svg" xmlns:xlink="http://www.w3.org/1999/xlink" x="0px" y="0px"
	 viewBox="0 0 122.8 122.9" style="enable-background:new 0 0 122.8 122.9;" xml:space="preserve">
<style type="text/css">
	.st0{fill:#4A92CE;}
</style>
<g>
	<path class="st0" d="M41.7,89c0.9,0.7,1.1,1.9,0.4,2.8s-1.9,1.1-2.8,0.4c-1.4-1.1-2.8-2.3-4.1-3.6l0,0l0,0
		c-1.3-1.3-2.5-2.7-3.6-4.2c-0.6-0.9-0.5-2.1,0.4-2.8c0.9-0.7,2.1-0.5,2.8,0.4c1,1.3,2.1,2.6,3.3,3.8l0,0C39.2,87,40.4,88.1,41.7,89
		L41.7,89z M35.3,61.9c-4.5-1.2-8.9-1.4-13-0.5c-3.9,0.8-7.4,2.7-10.2,5.5c-4.7,4.7-6.6,11.5-5.8,18.6c0.8,7.2,4.4,14.8,10.5,20.9
		l0,0c6.1,6.2,13.7,9.7,20.9,10.5c7,0.8,13.8-1.1,18.5-5.9l0,0c2.8-2.8,4.6-6.2,5.4-10c0.9-4,0.8-8.4-0.4-12.8
		c-0.3-1.1,0.4-2.2,1.4-2.4c0.2,0,0.3-0.1,0.5-0.1c2.1-0.1,4.1-0.5,6-1.3c1.8-0.7,3.4-1.8,4.8-3.2c3-3,4.4-7,4.5-11.2
		c0.1-4.5-1.4-9.3-4.4-13.5c-0.6-0.8-0.4-1.9,0.2-2.5l0,0l20.5-20.5c0.8-0.8,2-0.8,2.8,0l1.1,1.1l5.6-5.7c0-0.1,0.1-0.1,0.2-0.2
		c0.1-0.1,0.1-0.1,0.2-0.2l7.5-7.5c0-0.1,0.1-0.1,0.2-0.2c0.1-0.1,0.1-0.1,0.2-0.2l2.7-2.7L105.2,7.7L88.6,24.3l1.1,1.1
		c0.8,0.8,0.8,2,0,2.8L69.1,48.8c-0.7,0.7-1.8,0.8-2.6,0.2c-4.2-2.8-8.9-4.1-13.2-4c-4.2,0.1-8.1,1.6-11,4.5c-1.4,1.4-2.4,3-3.2,4.7
		c-0.8,1.8-1.2,3.8-1.3,5.9c0,1.1-1,2-2.1,1.9C35.6,62,35.4,62,35.3,61.9L35.3,61.9L35.3,61.9z M21.4,57.5c4-0.9,8.3-0.9,12.6,0
		c0.3-1.7,0.7-3.4,1.4-4.9c0.9-2.2,2.3-4.3,4-6C43.1,43,48,41.1,53.2,41c4.7-0.1,9.7,1.2,14.2,3.9l18-18.1l-1.1-1.1
		c-0.8-0.8-0.8-2,0-2.8l5.8-5.8L86.1,13c-0.8-0.8-0.8-2,0-2.8c0.8-0.8,2-0.8,2.8,0l4.1,4.1l5-5l-4.1-4.1c-0.8-0.8-0.8-2,0-2.8
		s2-0.8,2.8,0l4.1,4.1l2.9-2.9c0.8-0.8,2-0.8,2.8,0l12.9,12.9c0.8,0.8,0.8,2,0,2.8l-2.9,2.9l4,4c0.8,0.8,0.8,2,0,2.8s-2,0.8-2.8,0
		l-4-4l-5,5l4,4c0.8,0.8,0.8,2,0,2.8c-0.8,0.8-2,0.8-2.8,0l-4-4l-5.8,5.8c-0.8,0.8-2,0.8-2.8,0l-1.1-1.1l-17.9,18
		c2.8,4.6,4.2,9.7,4.1,14.5c-0.1,5.3-1.9,10.3-5.6,14c-1.8,1.8-3.9,3.1-6.1,4.1c-1.6,0.7-3.3,1.1-5.1,1.4c0.8,4.3,0.8,8.5-0.1,12.4
		c-1,4.5-3.2,8.7-6.5,12l0,0c-5.6,5.6-13.5,7.9-21.8,7C29.1,120,20.8,116,14,109.2l0,0C7.2,102.4,3.2,94,2.3,85.9
		c-0.9-8.2,1.3-16.2,7-21.8C12.7,60.7,16.9,58.5,21.4,57.5L21.4,57.5z M60,63c-1-1-2.4-1.6-3.8-1.6c-1.4,0-2.8,0.5-3.8,1.6l0,0
		c-1,1-1.6,2.4-1.6,3.8s0.5,2.8,1.6,3.8l0,0c1,1,2.4,1.6,3.8,1.6c1.4,0,2.8-0.5,3.8-1.6c1-1,1.6-2.4,1.6-3.8
		C61.6,65.4,61.1,64.1,60,63L60,63z M56.2,57.4c2.4,0,4.8,0.9,6.6,2.7c1.8,1.8,2.7,4.2,2.7,6.6c0,2.4-0.9,4.8-2.7,6.6
		c-1.8,1.8-4.2,2.7-6.6,2.7s-4.8-0.9-6.6-2.7l0,0c-1.8-1.8-2.7-4.2-2.7-6.6c0-2.4,0.9-4.8,2.7-6.6l0,0
		C51.5,58.4,53.9,57.4,56.2,57.4L56.2,57.4z M48.1,82.5c0.9,0.7,1.1,1.9,0.4,2.8c-0.6,0.9-1.9,1.1-2.8,0.4c-1.4-1.1-2.8-2.3-4.1-3.6
		l0,0l0,0c-1.3-1.3-2.5-2.7-3.6-4.2c-0.7-0.9-0.5-2.1,0.4-2.8c0.9-0.7,2.1-0.5,2.8,0.4c1,1.3,2.1,2.6,3.3,3.8l0,0
		C45.6,80.5,46.9,81.6,48.1,82.5L48.1,82.5z"/>
</g>
</svg>
