<?xml version="1.0" encoding="utf-8"?>
<!-- Generator: Adobe Illustrator 26.0.2, SVG Export Plug-In . SVG Version: 6.00 Build 0)  -->
<svg version="1.1" id="Layer_1" xmlns="http://www.w3.org/2000/svg" xmlns:xlink="http://www.w3.org/1999/xlink" x="0px" y="0px"
	 viewBox="0 0 122.6 122.9" style="enable-background:new 0 0 122.6 122.9;" xml:space="preserve">
<style type="text/css">
	.st0{fill-rule:evenodd;clip-rule:evenodd;fill:#4A92CE;}
</style>
<g>
	<path class="st0" d="M110.8,12.5c-6.3-6.4-14.6-9.6-22.9-9.6c-8.3,0-16.6,3.2-22.9,9.6c-1.6,1.7-3.1,3.4-4.3,5.3
		c0.7,9.2,7.3,19.4,16.1,27.9c9,8.7,20.1,15.3,29,17c0.2,0,0.4,0.1,0.6,0.1c1.6-1.1,3.1-2.4,4.4-3.8c6.3-6.4,9.5-14.8,9.5-23.2
		C120.3,27.3,117.2,18.9,110.8,12.5L110.8,12.5z M7.8,112.9c-1.4,1.5-2.5,3.3-3.3,5.3c-1.7,3.9-2,4.5,2,2.7c2-1,3.9-2.2,5.6-3.7
		c1.8,1.7,3.5,2.6,5.4,2.8c2,0.3,4-0.2,6.5-1.1c8.3-2.9,36.7-26.5,54.4-41.2c4.5-3.8,8.4-6.9,11.1-9.1c3.4-0.2,6.8-0.9,10-2.1
		c-8.7-3.2-18.1-9.5-26-17.1C66.1,42.4,60,34.1,57,25.9c-0.9,2.9-1.4,5.9-1.5,8.8c-1.9,2.4-4.6,5.8-7.9,9.9
		C33.2,62.8,7.9,94.3,5.9,101c-0.7,2.4-1.1,4.4-0.9,6.3C5.3,109.3,6.1,111.1,7.8,112.9L7.8,112.9z M82,68.1c-2,1.6-4.3,3.6-6.8,5.7
		C57.7,88.2,29.7,111.5,22.2,114c-1.8,0.6-3.2,1-4.2,0.8c-0.9-0.1-1.8-0.7-3-1.8l-3.4-3.4c-1-1-1.5-1.9-1.6-2.9
		c-0.1-1.1,0.2-2.5,0.7-4.3c1.7-5.7,26.5-36.8,40.7-54.6c1.7-2.1,3.2-4.1,4.6-5.7c1.2,6.2,4.2,12.1,8.9,16.8
		C69.8,63.9,75.8,66.9,82,68.1L82,68.1z"/>
</g>
</svg>
