<?xml version="1.0" encoding="utf-8"?>
<!-- Generator: Adobe Illustrator 26.0.2, SVG Export Plug-In . SVG Version: 6.00 Build 0)  -->
<svg version="1.1" id="Layer_1" xmlns="http://www.w3.org/2000/svg" xmlns:xlink="http://www.w3.org/1999/xlink" x="0px" y="0px"
	 viewBox="0 0 122.9 95.2" style="enable-background:new 0 0 122.9 95.2;" xml:space="preserve">
<style type="text/css">
	.st0{fill-rule:evenodd;clip-rule:evenodd;fill:#4A92CE;}
</style>
<path class="st0" d="M14.1,2.3H20v2c14.8,3.4,16.5,10.4,7.9,21.5c0.9-11-0.2-13.4-7.9-13.9v27.9c0,0.1,0,0.3,0,0.4
	c0,3.6-3.8,7.2-8.6,8s-8.5-1.5-8.5-5.1c0-4.9,6.8-9.2,11.2-7.7V2.3z M101.3,2.3h5.9v2c14.8,3.4,16.5,10.4,7.9,21.5
	c1-11-0.2-13.4-7.9-13.9v27.9c0,0.1,0,0.3,0,0.4c0,3.6-3.8,7.2-8.6,8c-4.8,0.8-8.6-1.5-8.6-5.1c0-4.9,6.8-9.2,11.2-7.7V2.3H101.3z
	 M70.3,67.4c1.4-0.3,2.9-0.2,4.3,0.1v-30l-32,9.1c0,11.8,0,23.6,0,35.4c0,5.5-6.1,9.5-11.1,10.4c-6.1,1-11.1-1.9-11.1-6.6
	c0-4.7,5-9.3,11.1-10.4c2.1-0.4,4.2-0.3,6.2,0.4V33l41.6-9.4v48.3c0.5,5.1-4.8,9-9.1,9.8C65.1,82.5,61,80,61,76.1
	C61,72.2,65.1,68.3,70.3,67.4L70.3,67.4z"/>
</svg>
