<?xml version="1.0" encoding="utf-8"?>
<!-- Generator: Adobe Illustrator 26.0.2, SVG Export Plug-In . SVG Version: 6.00 Build 0)  -->
<svg version="1.1" id="Layer_1" xmlns="http://www.w3.org/2000/svg" xmlns:xlink="http://www.w3.org/1999/xlink" x="0px" y="0px"
	 viewBox="0 0 104.2 122.9" style="enable-background:new 0 0 104.2 122.9;" xml:space="preserve">
<style type="text/css">
	.st0{fill-rule:evenodd;clip-rule:evenodd;fill:#4A92CE;}
</style>
<g>
	<path class="st0" d="M85.4,77.8c2.6-0.5,5.1-0.4,7.3,0.1V26.1L38.4,41.8v60.3c0,0.3,0,0.7,0,1v0c0,8.1-8.4,16.2-18.8,18
		c-10.4,1.8-18.8-3.3-18.8-11.4c0-8.1,8.4-16.2,18.8-18c3.9-0.7,7.5-0.4,10.6,0.7V18.2h0.5L101,1.9v83.6c0.1,0.6,0.2,1.2,0.2,1.9
		c0,0,0,0,0,0c0,6.8-7,13.5-15.7,15c-8.7,1.5-15.7-2.8-15.7-9.5C69.7,86.1,76.8,79.4,85.4,77.8L85.4,77.8L85.4,77.8z"/>
</g>
</svg>
