<?xml version="1.0" encoding="utf-8"?>
<!-- Generator: Adobe Illustrator 26.0.2, SVG Export Plug-In . SVG Version: 6.00 Build 0)  -->
<svg version="1.1" id="Layer_1" xmlns="http://www.w3.org/2000/svg" xmlns:xlink="http://www.w3.org/1999/xlink" x="0px" y="0px"
	 viewBox="0 0 72 122.9" style="enable-background:new 0 0 72 122.9;" xml:space="preserve">
<style type="text/css">
	.st0{fill-rule:evenodd;clip-rule:evenodd;fill:#4A92CE;}
</style>
<path class="st0" d="M5.8,1.7h60.6c2.1,0,3.8,1.8,3.8,3.9v111.6c0,2.1-1.7,3.9-3.8,3.9H5.8c-2.1,0-3.8-1.8-3.8-3.9V5.6
	C2,3.5,3.7,1.7,5.8,1.7z M36,13.6c4.1,0,8.1,1.7,11,4.7l0,0c6.1,6.3,6.1,16.4,0,22.7l0,0c-6.1,6.3-16,6.3-22.1,0s-6.1-16.4,0-22.7
	C27.9,15.3,31.9,13.6,36,13.6z M44,21.5c-4.4-4.5-11.5-4.5-15.8,0s-4.4,11.8,0,16.2c4.4,4.5,11.4,4.5,15.8,0l0,0
	C48.3,33.3,48.3,26,44,21.5L44,21.5z M36,25.2c2.4,0,4.4,2,4.4,4.5c0,2.5-2,4.5-4.4,4.5c-2.4,0-4.4-2-4.4-4.5v0
	C31.7,27.2,33.6,25.2,36,25.2z M36,76.8c4,0,7.2,3.3,7.2,7.4S40,91.6,36,91.6s-7.2-3.3-7.2-7.4S32.1,76.8,36,76.8L36,76.8z M36,59.2
	c13.5,0,24.4,11.2,24.4,25c0,13.8-10.9,25-24.4,25c-13.5,0-24.4-11.2-24.4-25c0-6.6,2.6-13,7.1-17.7C23.4,61.8,29.6,59.1,36,59.2z
	 M49.6,70.2c-7.5-7.7-19.6-7.7-27.1,0s-7.5,20.2,0,27.9s19.6,7.7,27.1,0c3.6-3.7,5.6-8.7,5.6-13.9C55.2,78.9,53.2,73.9,49.6,70.2z
	 M9.9,107.2c1,0,1.7,0.8,1.7,1.8c0,1-0.8,1.8-1.7,1.8s-1.7-0.8-1.7-1.8c0,0,0,0,0,0C8.2,108,9,107.2,9.9,107.2
	C9.9,107.2,9.9,107.2,9.9,107.2z M62.2,57.5c1,0,1.7,0.8,1.8,1.8c0,1-0.8,1.8-1.7,1.8c-1,0-1.7-0.8-1.8-1.8c0,0,0,0,0,0
	C60.4,58.3,61.2,57.6,62.2,57.5z M9.9,57.5c1,0,1.7,0.8,1.7,1.8c0,1-0.8,1.8-1.7,1.8c-1,0-1.7-0.8-1.7-1.8C8.2,58.4,9,57.6,9.9,57.5
	C9.9,57.6,9.9,57.6,9.9,57.5L9.9,57.5z M62.2,107.2c1,0,1.7,0.8,1.8,1.8c0,1-0.8,1.8-1.7,1.8c-1,0-1.7-0.8-1.8-1.8c0,0,0,0,0,0
	C60.4,108,61.2,107.2,62.2,107.2z"/>
</svg>
