<?xml version="1.0" encoding="utf-8"?>
<!-- Generator: Adobe Illustrator 26.0.2, SVG Export Plug-In . SVG Version: 6.00 Build 0)  -->
<svg version="1.1" id="Layer_1" xmlns="http://www.w3.org/2000/svg" xmlns:xlink="http://www.w3.org/1999/xlink" x="0px" y="0px"
	 viewBox="0 0 43.5 122.9" style="enable-background:new 0 0 43.5 122.9;" xml:space="preserve">
<style type="text/css">
	.st0{fill-rule:evenodd;clip-rule:evenodd;fill:#4A92CE;}
</style>
<path class="st0" d="M12.9,45.9c2.2-2.7,4.4-5.2,6.8-7.6c-1.1-3.7-1.8-7.6-1.9-11.5c-0.2-6.9,0.8-14.3,4.4-20.1
	c1-1.7,2.8-4.6,4.7-4.4C28.4,2.6,29.3,5,30,6.5c4.3,9.6,5.2,19.6,0.2,30.5c-1.8,3.8-4.2,7.3-6.9,10.3l2.1,11.6
	c0.3-0.1,0.5-0.1,0.8-0.1c2.6-0.4,5.2,0.1,7.6,1.3c4.9,2.9,8,10.1,7.5,16.1c-0.4,5.3-2.6,8.9-6.3,12.1c-1.2,1-2.4,1.9-3.7,2.7
	l2.5,14c0.1,1.2,0.1,2.4,0.1,3.6c-0.3,7.4-5.6,11.6-12.2,11.3c-5-0.3-10.3-4.7-10.3-10.2c-0.1-10.6,13.2-10.1,12.3-0.4
	c-0.3,2.9-2.2,5.4-6.4,5.6c3.3,6,13.7,1.7,14.4-6.2c0.1-2-0.1-4-0.6-6l-1.9-10.8c-0.9,0.3-1.8,0.5-2.7,0.6c-5.8,0.7-11.6-1.3-16-5.4
	c-6-5.9-8.6-14.7-7.1-23.3C4.6,56.5,8.5,51.3,12.9,45.9z M21.2,36.1c-2.1-7.5-1.8-17.1,3.6-23.3s11.2,2.2,3.5,14.7
	C26.2,30.6,23.8,33.5,21.2,36.1L21.2,36.1z M21.2,49.1c-0.7,0.7-1.4,1.3-2.1,2c-4,3.8-8,7.5-11,13c-3,5.2-3.5,11.5-1.5,17.2
	c2.4,7.5,14,12.2,22.6,9.9l-4.5-23.6c-3.7,1-6.5,4.2-7.1,8c-0.4,3,0.8,5.9,3.1,7.8c0.6,0.5,1.2,0.9,1.8,1.4c1.2,0.8,0.6,1.4-0.5,1.1
	c-3.9-1.3-6.2-3.4-7.4-6.2c-3.7-8.1,0.8-17.1,8.7-19.9L21.2,49.1L21.2,49.1z M31.6,90.4l-4.5-23.2c1.6-0.1,3.1,0.3,4.5,1
	c3.4,1.6,5.8,4.6,6.6,8.2c1.2,5.6-1.7,11.7-6.5,13.9L31.6,90.4L31.6,90.4z"/>
</svg>
