<?xml version="1.0" encoding="utf-8"?>
<!-- Generator: Adobe Illustrator 26.0.2, SVG Export Plug-In . SVG Version: 6.00 Build 0)  -->
<svg version="1.1" id="Layer_1" xmlns="http://www.w3.org/2000/svg" xmlns:xlink="http://www.w3.org/1999/xlink" x="0px" y="0px"
	 viewBox="0 0 91.7 122.9" style="enable-background:new 0 0 91.7 122.9;" xml:space="preserve">
<style type="text/css">
	.st0{fill:#4A92CE;}
</style>
<g>
	<path class="st0" d="M60.6,114.1c-0.1,0.2-0.3,0.3-0.4,0.5s-0.3,0.3-0.5,0.4l-4.4,4.4c-1.7,1.7-4.4,1.7-6.1,0
		c-1.7-1.7-1.7-4.4,0-6.1l1.8-1.8L10.7,71.3l-0.1-0.1C5,65.8,3.7,59.6,5.2,54.6c0.6-2.1,1.8-4,3.3-5.6c1.5-1.6,3.4-2.7,5.6-3.4
		c5.1-1.7,11.4-0.6,17.2,5.2l15.1,15l2.4-12.9L35.9,40.1c-0.2,0-0.3-0.1-0.4-0.1c-4.6-1.5-9.6-2.3-14.7-2.1
		c-4.7,0.2-9.4,1.3-13.9,3.5c-1.9,0.9-4.2,0.1-5.1-1.8c-0.7-1.5-0.4-3.2,0.7-4.3l0,0L35,2.9c1.5-1.5,3.9-1.5,5.4,0
		c1.2,1.2,1.4,2.9,0.7,4.3c-1.9,4.7-2.7,9.5-2.7,14.2c0,3.4,0.4,6.8,1.1,10.1l45.8,45.7c5.1,5.1,5.9,11.2,4.1,16.2
		c-0.7,1.9-1.8,3.6-3.1,5c-1.4,1.5-3.1,2.6-5.1,3.2c-4.7,1.6-10.5,0.7-15.8-4.6L36.3,68l-2.6,14l23.4,23.4l1.9-1.9
		c1.7-1.7,4.4-1.7,6.1,0c1.7,1.7,1.7,4.4,0,6.1L60.6,114.1L60.6,114.1z M53.8,73.2l7.8,7.7L64,68.1l-7.8-7.7L53.8,73.2L53.8,73.2z
		 M69,88.4l2.6,2.6c2.6,2.6,5,3.2,6.8,2.6c0.7-0.2,1.3-0.6,1.7-1.1c0.5-0.5,0.9-1.2,1.2-1.9c0.7-2.1,0.3-4.8-2.1-7.1l-7.9-7.9
		L69,88.4L69,88.4z M28.9,60.6l-3.7-3.7c-3.1-3.1-6.2-3.8-8.4-3.1c-0.8,0.3-1.5,0.7-2,1.2c-0.5,0.6-1,1.3-1.2,2.1
		c-0.6,2.2,0.1,5,3,7.8c0.1,0.1,0.2,0.2,0.3,0.3l9.4,9.4L28.9,60.6L28.9,60.6z"/>
</g>
</svg>
