<?xml version="1.0" encoding="utf-8"?>
<!-- Generator: Adobe Illustrator 26.0.2, SVG Export Plug-In . SVG Version: 6.00 Build 0)  -->
<svg version="1.1" id="Layer_1" xmlns="http://www.w3.org/2000/svg" xmlns:xlink="http://www.w3.org/1999/xlink" x="0px" y="0px"
	 viewBox="0 0 122.9 122.9" style="enable-background:new 0 0 122.9 122.9;" xml:space="preserve">
<style type="text/css">
	.st0{fill:#4A92CE;}
</style>
<g>
	<path class="st0" d="M61.5,0c16.7,0,31.8,6.9,42.7,18c0.5,0.5,0.9,1,1.4,1.5l-1.9,6.5c-1.1-1.4-2.3-2.6-3.5-3.9l0,0
		C90.3,12,76.6,5.7,61.5,5.7S32.7,12,22.8,22s-16,24-16,39.4s6.1,29.3,16,39.4s23.6,16.3,38.7,16.3s28.8-6.2,38.7-16.3
		s16-24,16-39.4c0-5.1-0.7-10.1-2-14.8l2.7-9.3c3.1,7.4,4.9,15.6,4.9,24.2c0,17-6.8,32.3-17.7,43.4c-10.9,11.1-26,18-42.7,18
		c-16.7,0-31.8-6.9-42.7-18C7.9,93.8,1.1,78.4,1.1,61.4S7.9,29.1,18.8,18C29.7,6.9,44.8,0,61.5,0L61.5,0L61.5,0z M84.2,66
		c2.3,0,4.3,1.2,5.6,2.9l7.7-1.5l16.1-55.2c0.4-1.5,2-2.4,3.5-2s2.4,2.1,1.9,3.6l-16.6,56.9c-0.3,1.1-1.3,1.9-2.3,2.1l-9.3,1.8
		c-0.7,3-3.4,5.2-6.6,5.2c-3.8,0-6.8-3.1-6.8-6.9S80.4,66,84.2,66L84.2,66z M34.8,54.9c-0.4,1.3-1.8,1.9-3,1.5
		c-1.2-0.4-1.9-1.8-1.5-3.1c1.7-5,4.4-9.5,7.8-13.2c3.4-3.8,7.6-6.8,12.4-8.9c1.2-0.5,2.6,0,3.1,1.3c0.5,1.2,0,2.7-1.2,3.2
		c-4.1,1.8-7.8,4.5-10.8,7.8C38.6,46.7,36.2,50.6,34.8,54.9L34.8,54.9L34.8,54.9z M22,52.5c-0.3,1.3-1.6,2.1-2.9,1.8
		c-1.3-0.3-2.1-1.7-1.7-3c1.9-7.7,5.7-14.6,10.8-20.3c5.1-5.7,11.6-10.2,18.9-12.8c1.2-0.5,2.6,0.2,3.1,1.5c0.4,1.3-0.2,2.7-1.5,3.1
		c-6.6,2.4-12.4,6.4-17,11.5C27.2,39.3,23.8,45.6,22,52.5L22,52.5L22,52.5z M61.5,47.1c3.9,0,7.4,1.6,9.9,4.2
		c2.5,2.6,4.1,6.2,4.1,10.1S74,69,71.4,71.5c-2.5,2.6-6.1,4.2-9.9,4.2s-7.4-1.6-9.9-4.2c-2.5-2.6-4.1-6.2-4.1-10.1s1.6-7.5,4.1-10.1
		C54.1,48.7,57.6,47.1,61.5,47.1L61.5,47.1L61.5,47.1z"/>
</g>
</svg>
